Coordinates
version=1
nRows=12
nColumns=24
inDegrees=yes

Units are S.I. units (second, meters, Newtons, ...)
Angles are in degrees.

endheader
time	pelvis_tilt	pelvis_list	pelvis_rotation	pelvis_tx	pelvis_ty	pelvis_tz	hip_flexion_r	hip_adduction_r	hip_rotation_r	knee_angle_r	ankle_angle_r	subtalar_angle_r	mtp_angle_r	hip_flexion_l	hip_adduction_l	hip_rotation_l	knee_angle_l	ankle_angle_l	subtalar_angle_l	mtp_angle_l	lumbar_extension	lumbar_bending	lumbar_rotation
      2.88000000	     -7.60376778	    -18.74602099	      7.52840566	     -2.44052258	     -0.05017057	      0.48095145	     26.75181913	     21.23530149	     -2.12357889	    -23.69678587	      2.12495187	      1.18083680	      2.65504380	     22.12504704	    -19.43502677	      7.19473316	    -70.66573334	    -28.41038265	     13.43559960	     30.32141423	      9.03870560	     19.27730758	     -7.23885330
      2.88500000	     -7.48100100	    -18.67736729	      7.42624025	     -2.43328406	     -0.04887617	      0.48133111	     25.76513167	     21.46128735	     -1.51110336	    -23.21166038	      2.36073940	      0.85900105	      2.07983161	     22.95614131	    -19.09208703	      7.47998832	    -71.25955506	    -27.31984026	     13.10217465	     30.66130583	      8.88969271	     19.20304542	     -6.89626806
      2.89000000	     -7.41961567	    -18.55151556	      7.29560897	     -2.42609778	     -0.04762043	      0.48168865	     24.83723804	     21.60737498	     -0.89653153	    -22.74579694	      2.58832623	      0.58097908	      1.61390729	     23.82522361	    -18.67232275	      7.70017970	    -71.76799224	    -26.36673513	     12.63471216	     30.94645751	      8.79165739	     19.06707240	     -6.54226892
      2.89500000	     -7.34536991	    -18.42570425	      7.15933448	     -2.41898032	     -0.04638389	      0.48205045	     23.89765869	     21.75241951	     -0.24794658	    -22.28130908	      2.78101361	      0.27845640	      1.10830639	     24.67601704	    -18.25657693	      7.90658741	    -72.20847406	    -25.41959937	     12.27385054	     31.24277851	      8.66331946	     18.93651790	     -6.16981593
      2.90000000	     -7.31224516	    -18.23315249	      6.99897608	     -2.41178694	     -0.04515924	      0.48243012	     22.97513565	     21.81959805	      0.40099008	    -21.81211162	      2.96534755	     -0.04973882	      0.68159989	     25.51273664	    -17.76917558	      8.05324256	    -72.54267986	    -24.51603255	     11.93899294	     31.52912987	      8.59084745	     18.72641071	     -5.79496164
      2.90500000	     -7.27951623	    -18.04142566	      6.81012138	     -2.40465162	     -0.04397811	      0.48283482	     22.05006796	     21.89431707	      1.12460289	    -21.34675405	      3.11491297	     -0.42179780	      0.18967772	     26.33490241	    -17.29870442	      8.15737757	    -72.80993330	    -23.63658387	     11.64889773	     31.78851887	      8.49697753	     18.52661814	     -5.39253887
      2.91000000	     -7.25043938	    -17.85926723	      6.60159944	     -2.39750149	     -0.04283914	      0.48324837	     21.11776657	     21.97678175	      1.89266926	    -20.87417941	      3.25858469	     -0.79414137	     -0.40954199	     27.14318326	    -16.85451236	      8.22425944	    -73.00517513	    -22.78647224	     11.37532601	     32.00492074	      8.41147435	     18.34439362	     -4.97445819
      2.91500000	     -7.27651455	    -17.58204959	      6.35689716	     -2.39038816	     -0.04175877	      0.48369590	     20.25192384	     21.94056327	      2.58795736	    -20.44825301	      3.43394502	     -1.12685563	     -0.82658944	     27.95331747	    -16.31190538	      8.22043256	    -73.10472652	    -21.99052835	     11.13072071	     32.22411520	      8.36077755	     18.05270784	     -4.52307413
      2.92000000	     -7.27530872	    -17.35678789	      6.07504574	     -2.38321657	     -0.04070992	      0.48417862	     19.32184760	     21.98310354	      3.47924660	    -19.98149185	      3.55482798	     -1.55910564	     -1.48713123	     28.71474649	    -15.86555326	      8.17279265	    -73.13713099	    -21.19729804	     10.89743090	     32.37263997	      8.28688550	     17.83557853	     -4.05693795
      2.92500000	     -7.32526425	    -17.05915803	      5.74334026	     -2.37613081	     -0.03973684	      0.48468223	     18.46701619	     21.92944239	      4.31064123	    -19.57667885	      3.71377017	     -1.89458630	     -1.99506048	     29.48216181	    -15.35144021	      8.06018294	    -73.08482424	    -20.45134780	     10.68223781	     32.51294426	      8.22896444	     17.54538097	     -3.53129912
      2.93000000	     -7.36734447	    -16.76051925	      5.38573267	     -2.36892498	     -0.03879181	      0.48524028	     17.57117041	     21.88183427	      5.21474888	    -19.14005270	      3.86347190	     -2.30879908	     -2.61867339	     30.20232830	    -14.88130441	      7.88521700	    -72.94578948	    -19.73144973	     10.47767176	     32.58546607	      8.18640454	     17.25678974	     -3.00652918
      2.93500000	     -7.41161632	    -16.42959761	      5.01173989	     -2.36175867	     -0.03791247	      0.48583603	     16.68943508	     21.79655983	      6.12308685	    -18.73635168	      4.04130305	     -2.76404796	     -3.34268872	     30.89699662	    -14.39975772	      7.66822686	    -72.73357858	    -19.02386248	     10.28727901	     32.59722791	      8.12870096	     16.93251140	     -2.45916176
